<svg xmlns="http://www.w3.org/2000/svg" viewBox="0 0 202.5 202.5" xmlns:v="https://vecta.io/nano"><style><![CDATA[.F{stroke-linejoin:round}.G{stroke-miterlimit:10}.H{stroke-linecap:round}]]></style><g fill="none" stroke="#004f9f" class="F G"><g stroke-width="2.908"><path d="M166.7 45.8s-2.8 3-13.1 7.4-20.7 3.7-67.8-3.8c-42.7-6.8-50-13.3-50-13.3l.2 133.3c0 .9.3 1.7.8 2.3.9 1.1 15.5 12.4 44.5 18.3 34.1 6.9 53.4 7.3 66.3 5.2 12.9-2 18.8-8.7 19-9.4V178M35.7 17.5v18.6" class="H"/><path d="M83 32.6c20.7 3.6 44.9 6.7 57.7 5.5 11.6-1.1 25.8-6.9 26-10.3s-16.6-9.9-56.1-15.9C71.9 6 60 7 52.5 8.8c-4.9 1.2-14.9 4.3-16.7 8.7S62.3 29 83 32.6z"/><path d="M166.7 27.8v150.6s-7.6 9.5-24.4 10.4-84.9-5.8-106.1-25.7" class="H"/></g><path d="M152.6 53.9v132.7" stroke-width="1.587" class="H"/><path d="M104.3 17.8c11 1.9 36 6.8 40.7 8.5s6.8 3.8 1.5 5.9-14.5 3.1-36.2.6c-20-2.3-45.6-6.7-54.7-10.3-5.9-2.1-7.1-3.6-6-5.2s6.7-5.2 17.3-4.5 37.4 5 37.4 5z" stroke-width="1.466"/><path d="M87.6 12.4l6.3 1m2.7.4l6.4 1m2.5.5l6.4 1m2.4.5l6.4 1.1m2.5.5l6.3 1.1m2.7.5l6.4 1.2" stroke-width="2.38" class="H"/><path d="M88 45.1c0 .8-.7 1.4-1.5 1.2l-8.7-1.6c-.8-.2-1.5-1-1.5-1.8V36c0-.8.7-1.4 1.5-1.2l8.7 1.6c.8.2 1.5 1 1.5 1.8v6.9z" stroke-width="1.396"/></g></svg>